#N canvas 0 23 450 300 10;
#X obj 65 20 inlet;
#X obj 65 84 pack f f f;
#X obj 100 207 outlet~;
#X text 124 19 3-voice polyphonic synth;
#X obj 65 115 route 1 2 3, f 18;
#X obj 65 52 poly 3 1;
#X obj 41 151 synthVoice;
#X obj 231 154 synthVoice;
#X obj 142 153 synthVoice;
#X connect 0 0 5 0;
#X connect 1 0 4 0;
#X connect 4 0 6 0;
#X connect 4 1 8 0;
#X connect 4 2 7 0;
#X connect 5 0 1 0;
#X connect 5 1 1 1;
#X connect 5 2 1 2;
#X connect 6 0 2 0;
#X connect 7 0 2 0;
#X connect 8 0 2 0;
