#N canvas 391 397 450 300 10;
#X obj 234 124 / 127;
#X obj 219 204 *~;
#X obj 80 161 phasor~;
#X obj 81 102 mtof;
#X obj 81 31 inlet;
#X obj 219 273 outlet~;
#X obj 81 70 unpack float float;
#X obj 234 174 vline~;
#X obj 80 189 cyclone/triangle~ 0.9;
#X obj 219 236 /~ 3;
#X msg 234 149 \$1 10;
#X obj 268 73 r pitch\$1;
#X obj 306 108 print;
#X obj 364 133 bng 15 250 50 0 empty empty empty 17 7 0 10 -262144
-1 -1;
#X obj 158 121 - 64;
#X obj 105 128 -;
#X obj 239 66 bng 15 250 50 0 empty empty empty 17 7 0 10 -262144 -1
-1;
#X obj 244 41 r resetpitches;
#X connect 0 0 10 0;
#X connect 1 0 9 0;
#X connect 2 0 8 0;
#X connect 3 0 15 0;
#X connect 4 0 6 0;
#X connect 6 0 3 0;
#X connect 6 1 0 0;
#X connect 7 0 1 1;
#X connect 8 0 1 0;
#X connect 9 0 5 0;
#X connect 10 0 7 0;
#X connect 11 0 12 0;
#X connect 11 0 14 0;
#X connect 14 0 15 1;
#X connect 15 0 2 0;
#X connect 16 0 15 0;
#X connect 17 0 14 0;
#X connect 17 0 16 0;
#X connect 17 0 12 0;
