#N canvas -46 205 1386 611 10;
#X obj 1003 379 cyclone/midiparse;
#X obj 1032 209 tgl 22 0 empty empty empty 17 7 0 10 -216373 -66577
-1 0 1;
#X msg 1039 276 stop;
#X text 1062 211 play/stop;
#X obj 1003 351 cyclone/midiflush;
#X msg 1113 309 bang;
#X text 1147 304 flush hanging;
#X text 1149 318 MIDI notes;
#X obj 1032 241 select 1 0;
#X msg 1113 272 read;
#X text 1119 252 open another;
#X text 1149 273 file;
#X text 1112 428 synthesizer;
#X text 1084 412 <= 3 voice polyphonic;
#X msg 899 282 delay 500;
#X obj 1003 311 cyclone/seq;
#X msg 977 267 start -1;
#X msg 878 374 tick;
#X obj 715 320 pipe 2000;
#X obj 572 474 line 0;
#X floatatom 395 401 5 0 0 0 - - -;
#X obj 315 437 pack 24 200;
#X floatatom 573 504 5 0 0 0 - - -;
#X obj 578 219 expr 60000./($f1*24.);
#X obj 571 527 b;
#X floatatom 766 220 5 0 0 0 - - -;
#X obj 443 247 expr 60000./$f1;
#X obj 553 350 *;
#X obj 461 292 nbx 5 14 -1e+37 1e+37 0 0 empty empty empty 0 -8 0 10
-262144 -1 -1 0 256;
#X floatatom 613 287 5 0 0 0 - - -;
#X floatatom 613 316 5 0 0 0 - - -;
#X obj 1014 86 bng 15 250 50 0 empty empty empty 17 7 0 10 -262144
-1 -1;
#X obj 1016 117 trigger bang bang;
#X obj 1115 147 bng 15 250 50 0 empty empty empty 17 7 0 10 -262144
-1 -1;
#X obj 987 160 bng 15 250 50 0 empty empty empty 17 7 0 10 -262144
-1 -1;
#X msg 1115 171 0;
#X msg 987 180 1;
#X obj 234 299 trigger bang bang;
#X obj 495 321 / 10;
#X obj 485 26 inlet;
#X obj 714 26 inlet;
#X obj 1012 35 inlet;
#X obj 1002 463 outlet~;
#X obj 231 67 r step;
#X obj 363 97 r tempo;
#X obj 530 25 r speed\$1;
#X obj 769 26 r phase\$1;
#X obj 570 94 print speed\$1;
#X obj 792 80 print phase\$1;
#X obj 905 165 loadbang;
#X obj 771 497 print \$1 \$2;
#X obj 782 464 loadbang;
#X obj 908 207 symbol \$2;
#X msg 937 239 read \$1;
#X obj 1191 195 r allstop;
#X obj 1089 38 r allrestart;
#X obj 1003 412 polysynth;
#X obj 543 142 expr 1 - ($f1/127);
#X obj 741 148 * 10;
#X obj 697 262 select 0;
#X msg 697 296 flush;
#X obj 1016 142 pipe 10;
#X obj 652 508 counter;
#X floatatom 653 545 5 0 0 0 - - -;
#X obj 671 476 r clearcounter;
#X connect 0 0 56 0;
#X connect 1 0 8 0;
#X connect 2 0 15 0;
#X connect 4 0 0 0;
#X connect 5 0 4 0;
#X connect 8 0 16 0;
#X connect 8 1 2 0;
#X connect 8 1 5 0;
#X connect 9 0 15 0;
#X connect 14 0 15 0;
#X connect 15 0 4 0;
#X connect 15 1 16 0;
#X connect 16 0 15 0;
#X connect 17 0 15 0;
#X connect 18 0 17 0;
#X connect 19 0 22 0;
#X connect 20 0 19 0;
#X connect 21 0 19 0;
#X connect 22 0 24 0;
#X connect 23 0 27 1;
#X connect 23 0 29 0;
#X connect 24 0 18 0;
#X connect 24 0 62 0;
#X connect 25 0 18 1;
#X connect 25 0 59 0;
#X connect 26 0 21 1;
#X connect 27 0 19 2;
#X connect 27 0 30 0;
#X connect 28 0 38 0;
#X connect 31 0 32 0;
#X connect 32 0 61 0;
#X connect 32 1 33 0;
#X connect 33 0 35 0;
#X connect 34 0 36 0;
#X connect 35 0 8 0;
#X connect 36 0 8 0;
#X connect 37 0 21 0;
#X connect 37 1 20 0;
#X connect 38 0 27 0;
#X connect 39 0 28 0;
#X connect 40 0 58 0;
#X connect 41 0 31 0;
#X connect 43 0 37 0;
#X connect 44 0 26 0;
#X connect 44 0 23 0;
#X connect 45 0 47 0;
#X connect 45 0 57 0;
#X connect 46 0 48 0;
#X connect 46 0 58 0;
#X connect 49 0 52 0;
#X connect 51 0 50 0;
#X connect 52 0 53 0;
#X connect 53 0 15 0;
#X connect 54 0 8 0;
#X connect 55 0 31 0;
#X connect 56 0 42 0;
#X connect 57 0 27 0;
#X connect 58 0 25 0;
#X connect 59 0 60 0;
#X connect 60 0 18 0;
#X connect 61 0 34 0;
#X connect 62 0 63 0;
#X connect 64 0 62 2;
