#N canvas 321 167 1517 930 10;
#X msg 312 104 tempo \$1;
#X msg 101 105 resolution \$1;
#X msg 204 125 reset \$1 \$2;
#X obj 204 104 pack f f;
#X floatatom 278 224 5 0 0 1 beat_time - -;
#X floatatom 241 242 5 0 0 1 phase - -;
#X msg 93 571 \; pd dsp 1;
#X floatatom 204 264 5 0 0 1 step - -;
#X floatatom 315 203 5 0 0 1 tempo - -;
#X obj 24 85 tgl 15 0 empty empty empty 17 7 0 10 -262144 -1 -1 0 1
;
#X obj 204 178 abl_link~ 1 0 4 134;
#X floatatom 312 85 5 0 0 2 tempo - -;
#X floatatom 249 85 5 0 0 2 quantum - -;
#X floatatom 204 85 5 0 0 2 beat - -;
#X floatatom 101 85 5 0 0 2 resolution - -;
#X msg 24 105 connect \$1;
#X floatatom 61 649 5 0 0 0 - - -;
#X obj 61 627 r #abl_link_num_peers;
#X obj 974 28 ctlin;
#X floatatom 891 64 5 0 0 0 - - -;
#X floatatom 966 69 5 0 0 0 - - -;
#X floatatom 1043 89 5 0 0 0 - - -;
#X obj 217 339 s step;
#X obj 335 288 s tempo;
#X obj 712 728 *~ 1;
#X obj 989 665 nbx 5 14 -1e+37 1e+37 0 0 empty empty empty 0 -8 0 10
-262144 -1 -1 0.3 256;
#X obj 698 801 dac~;
#X obj 582 416 bng 15 250 50 0 empty empty empty 17 7 0 10 -262144
-1 -1;
#X obj 723 418 bng 15 250 50 0 empty empty empty 17 7 0 10 -262144
-1 -1;
#X obj 853 411 bng 15 250 50 0 empty empty empty 17 7 0 10 -262144
-1 -1;
#X obj 987 414 bng 15 250 50 0 empty empty empty 17 7 0 10 -262144
-1 -1;
#X floatatom 1313 138 5 0 0 0 - - -;
#X obj 1299 172 pack 4 5;
#X obj 1314 262 send acc3;
#X floatatom 1054 200 5 0 0 0 - - -;
#X floatatom 959 207 5 0 0 0 - - -;
#X obj 964 168 expr $i1%2 \; $i1/2;
#X msg 971 266 symbol speed3;
#X msg 1072 263 symbol phase3;
#X obj 924 231 select 0 1;
#X obj 893 453 warpLooper_sub 3;
#X obj 756 453 warpLooper_sub 2;
#X obj 629 453 warpLooper_sub 1;
#X obj 489 453 warpLooper_sub 0;
#X obj 1309 404 trigger float float;
#X msg 1316 363 10 10;
#X obj 1424 446 + 1;
#X obj 1367 499 print;
#X obj 898 323 send;
#X msg 1010 226 set symbol speed\$1;
#X msg 1153 229 set symbol phase\$1;
#X connect 0 0 10 0;
#X connect 1 0 10 0;
#X connect 2 0 10 0;
#X connect 3 0 2 0;
#X connect 7 0 22 0;
#X connect 8 0 23 0;
#X connect 9 0 15 0;
#X connect 10 0 7 0;
#X connect 10 1 5 0;
#X connect 10 2 4 0;
#X connect 10 3 8 0;
#X connect 11 0 0 0;
#X connect 12 0 3 1;
#X connect 13 0 3 0;
#X connect 14 0 1 0;
#X connect 15 0 10 0;
#X connect 17 0 16 0;
#X connect 18 0 19 0;
#X connect 18 1 20 0;
#X connect 18 2 21 0;
#X connect 19 0 48 0;
#X connect 20 0 36 0;
#X connect 24 0 26 0;
#X connect 24 0 26 1;
#X connect 25 0 24 1;
#X connect 27 0 43 2;
#X connect 28 0 42 2;
#X connect 29 0 41 2;
#X connect 30 0 40 2;
#X connect 31 0 32 0;
#X connect 32 0 33 0;
#X connect 34 0 49 0;
#X connect 34 0 50 0;
#X connect 35 0 39 0;
#X connect 36 0 35 0;
#X connect 36 1 34 0;
#X connect 37 0 48 1;
#X connect 38 0 48 1;
#X connect 39 0 37 0;
#X connect 39 1 38 0;
#X connect 40 0 24 0;
#X connect 41 0 24 0;
#X connect 42 0 24 0;
#X connect 43 0 24 0;
#X connect 44 0 47 0;
#X connect 44 1 46 0;
#X connect 45 0 44 0;
#X connect 46 0 47 0;
#X connect 49 0 37 0;
#X connect 50 0 38 0;
