#N canvas 321 167 1517 930 10;
#X obj 1003 379 cyclone/midiparse;
#X obj 1032 209 tgl 22 0 empty empty empty 17 7 0 10 -216373 -66577
-1 0 1;
#X msg 1039 276 stop;
#X text 1062 211 play/stop;
#X obj 1003 351 cyclone/midiflush;
#X msg 1113 309 bang;
#X text 1147 304 flush hanging;
#X text 1149 318 MIDI notes;
#X obj 1032 241 select 1 0;
#X obj 937 214 loadbang;
#X msg 1113 272 read;
#X text 1119 252 open another;
#X text 1149 273 file;
#X text 1112 428 synthesizer;
#N canvas 638 210 345 266 polysynth 0;
#X obj 65 20 inlet;
#N canvas 667 245 370 323 synth 0;
#X obj 234 124 / 127;
#X obj 219 204 *~;
#X obj 81 134 phasor~;
#X obj 81 102 mtof;
#X obj 81 31 inlet;
#X obj 219 273 outlet~;
#X obj 81 70 unpack float float;
#X obj 234 174 vline~;
#X msg 234 149 \$1 50;
#X obj 81 162 cyclone/triangle~ 0.9;
#X obj 219 236 /~ 3;
#X connect 0 0 8 0;
#X connect 1 0 10 0;
#X connect 2 0 9 0;
#X connect 3 0 2 0;
#X connect 4 0 6 0;
#X connect 6 0 3 0;
#X connect 6 1 0 0;
#X connect 7 0 1 1;
#X connect 8 0 7 0;
#X connect 9 0 1 0;
#X connect 10 0 5 0;
#X restore 41 151 pd synth;
#X obj 65 84 pack f f f;
#X obj 100 207 outlet~;
#N canvas 667 245 370 323 synth 0;
#X obj 234 124 / 127;
#X obj 219 204 *~;
#X obj 81 134 phasor~;
#X obj 81 102 mtof;
#X obj 81 31 inlet;
#X obj 219 273 outlet~;
#X obj 81 70 unpack float float;
#X obj 234 174 vline~;
#X msg 234 149 \$1 50;
#X obj 81 162 cyclone/triangle~ 0.9;
#X obj 219 236 /~ 3;
#X connect 0 0 8 0;
#X connect 1 0 10 0;
#X connect 2 0 9 0;
#X connect 3 0 2 0;
#X connect 4 0 6 0;
#X connect 6 0 3 0;
#X connect 6 1 0 0;
#X connect 7 0 1 1;
#X connect 8 0 7 0;
#X connect 9 0 1 0;
#X connect 10 0 5 0;
#X restore 100 151 pd synth;
#N canvas 667 245 370 323 synth 0;
#X obj 234 124 / 127;
#X obj 219 204 *~;
#X obj 81 134 phasor~;
#X obj 81 102 mtof;
#X obj 81 31 inlet;
#X obj 219 273 outlet~;
#X obj 81 70 unpack float float;
#X obj 234 174 vline~;
#X msg 234 149 \$1 50;
#X obj 81 162 cyclone/triangle~ 0.9;
#X obj 219 236 /~ 3;
#X connect 0 0 8 0;
#X connect 1 0 10 0;
#X connect 2 0 9 0;
#X connect 3 0 2 0;
#X connect 4 0 6 0;
#X connect 6 0 3 0;
#X connect 6 1 0 0;
#X connect 7 0 1 1;
#X connect 8 0 7 0;
#X connect 9 0 1 0;
#X connect 10 0 5 0;
#X restore 161 152 pd synth;
#X text 124 19 3-voice polyphonic synth;
#X obj 65 115 route 1 2 3, f 18;
#X obj 65 52 poly 3 1;
#X connect 0 0 8 0;
#X connect 1 0 3 0;
#X connect 2 0 7 0;
#X connect 4 0 3 0;
#X connect 5 0 3 0;
#X connect 7 0 1 0;
#X connect 7 1 4 0;
#X connect 7 2 5 0;
#X connect 8 0 2 0;
#X connect 8 1 2 1;
#X connect 8 2 2 2;
#X restore 1003 412 pd polysynth;
#X text 1084 412 <= 3 voice polyphonic;
#X msg 899 282 delay 500;
#X obj 1003 311 cyclone/seq;
#X msg 977 267 start -1;
#X msg 878 374 tick;
#X msg 937 239 read seq2.mid;
#X obj 983 449 dac~;
#X obj 715 320 pipe 2000;
#X msg 379 105 tempo \$1;
#X msg 168 106 resolution \$1;
#X msg 271 126 reset \$1 \$2;
#X obj 271 105 pack f f;
#X floatatom 278 224 5 0 0 1 beat_time - -;
#X floatatom 241 242 5 0 0 1 phase - -;
#X msg 93 571 \; pd dsp 1;
#X floatatom 204 264 5 0 0 1 step - -;
#X floatatom 315 203 5 0 0 1 tempo - -;
#X obj 91 86 tgl 15 0 empty empty empty 17 7 0 10 -262144 -1 -1 0 1
;
#X obj 204 178 abl_link~ 1 0 4 134;
#X floatatom 379 86 5 0 0 2 tempo - -;
#X floatatom 316 86 5 0 0 2 quantum - -;
#X floatatom 271 86 5 0 0 2 beat - -;
#X floatatom 168 86 5 0 0 2 resolution - -;
#X msg 91 106 connect \$1;
#X floatatom 61 649 5 0 0 0 - - -;
#X obj 61 627 r #abl_link_num_peers;
#X obj 572 474 line 0;
#X floatatom 395 401 5 0 0 0 - - -;
#X obj 315 437 pack 24 200;
#X floatatom 573 504 5 0 0 0 - - -;
#X obj 578 219 expr 60000./($f1*24.);
#X obj 571 527 b;
#X floatatom 759 263 5 0 0 0 - - -;
#X obj 443 247 expr 60000./$f1;
#X obj 234 299 trigger bang bang;
#X obj 553 350 *;
#X obj 461 292 nbx 5 14 -1e+37 1e+37 0 0 empty empty empty 0 -8 0 10
-262144 -1 -1 100 256;
#X obj 495 321 / 100;
#X floatatom 613 287 5 0 0 0 - - -;
#X floatatom 613 316 5 0 0 0 - - -;
#X connect 0 0 14 0;
#X connect 1 0 8 0;
#X connect 2 0 17 0;
#X connect 4 0 0 0;
#X connect 5 0 4 0;
#X connect 8 0 18 0;
#X connect 8 1 2 0;
#X connect 8 1 5 0;
#X connect 9 0 20 0;
#X connect 10 0 17 0;
#X connect 14 0 21 0;
#X connect 14 0 21 1;
#X connect 16 0 17 0;
#X connect 17 0 4 0;
#X connect 17 1 18 0;
#X connect 18 0 17 0;
#X connect 19 0 17 0;
#X connect 20 0 17 0;
#X connect 22 0 19 0;
#X connect 23 0 33 0;
#X connect 24 0 33 0;
#X connect 25 0 33 0;
#X connect 26 0 25 0;
#X connect 30 0 49 0;
#X connect 32 0 38 0;
#X connect 33 0 30 0;
#X connect 33 1 28 0;
#X connect 33 2 27 0;
#X connect 33 3 31 0;
#X connect 33 3 45 0;
#X connect 33 3 48 0;
#X connect 34 0 23 0;
#X connect 35 0 26 1;
#X connect 36 0 26 0;
#X connect 37 0 24 0;
#X connect 38 0 33 0;
#X connect 40 0 39 0;
#X connect 41 0 44 0;
#X connect 42 0 41 0;
#X connect 43 0 41 0;
#X connect 44 0 46 0;
#X connect 45 0 50 1;
#X connect 45 0 53 0;
#X connect 46 0 22 0;
#X connect 47 0 22 1;
#X connect 48 0 43 1;
#X connect 49 0 43 0;
#X connect 49 1 42 0;
#X connect 50 0 41 2;
#X connect 50 0 54 0;
#X connect 51 0 52 0;
#X connect 52 0 50 0;
