#N canvas 263 251 1386 611 10;
#X obj 1003 379 cyclone/midiparse;
#X obj 1032 209 tgl 22 0 empty empty empty 17 7 0 10 -216373 -66577
-1 0 1;
#X msg 1039 276 stop;
#X text 1062 211 play/stop;
#X obj 1003 351 cyclone/midiflush;
#X msg 1113 309 bang;
#X text 1147 304 flush hanging;
#X text 1149 318 MIDI notes;
#X obj 1032 241 select 1 0;
#X msg 1113 272 read;
#X text 1119 252 open another;
#X text 1149 273 file;
#X text 1112 428 synthesizer;
#N canvas 638 210 345 266 polysynth 0;
#X obj 65 20 inlet;
#N canvas 667 245 370 323 synth 0;
#X obj 234 124 / 127;
#X obj 219 204 *~;
#X obj 81 134 phasor~;
#X obj 81 102 mtof;
#X obj 81 31 inlet;
#X obj 219 273 outlet~;
#X obj 81 70 unpack float float;
#X obj 234 174 vline~;
#X msg 234 149 \$1 50;
#X obj 81 162 cyclone/triangle~ 0.9;
#X obj 219 236 /~ 3;
#X connect 0 0 8 0;
#X connect 1 0 10 0;
#X connect 2 0 9 0;
#X connect 3 0 2 0;
#X connect 4 0 6 0;
#X connect 6 0 3 0;
#X connect 6 1 0 0;
#X connect 7 0 1 1;
#X connect 8 0 7 0;
#X connect 9 0 1 0;
#X connect 10 0 5 0;
#X restore 41 151 pd synth;
#X obj 65 84 pack f f f;
#X obj 100 207 outlet~;
#N canvas 667 245 370 323 synth 0;
#X obj 234 124 / 127;
#X obj 219 204 *~;
#X obj 81 134 phasor~;
#X obj 81 102 mtof;
#X obj 81 31 inlet;
#X obj 219 273 outlet~;
#X obj 81 70 unpack float float;
#X obj 234 174 vline~;
#X msg 234 149 \$1 50;
#X obj 81 162 cyclone/triangle~ 0.9;
#X obj 219 236 /~ 3;
#X connect 0 0 8 0;
#X connect 1 0 10 0;
#X connect 2 0 9 0;
#X connect 3 0 2 0;
#X connect 4 0 6 0;
#X connect 6 0 3 0;
#X connect 6 1 0 0;
#X connect 7 0 1 1;
#X connect 8 0 7 0;
#X connect 9 0 1 0;
#X connect 10 0 5 0;
#X restore 100 151 pd synth;
#N canvas 667 245 370 323 synth 0;
#X obj 234 124 / 127;
#X obj 219 204 *~;
#X obj 81 134 phasor~;
#X obj 81 102 mtof;
#X obj 81 31 inlet;
#X obj 219 273 outlet~;
#X obj 81 70 unpack float float;
#X obj 234 174 vline~;
#X msg 234 149 \$1 50;
#X obj 81 162 cyclone/triangle~ 0.9;
#X obj 219 236 /~ 3;
#X connect 0 0 8 0;
#X connect 1 0 10 0;
#X connect 2 0 9 0;
#X connect 3 0 2 0;
#X connect 4 0 6 0;
#X connect 6 0 3 0;
#X connect 6 1 0 0;
#X connect 7 0 1 1;
#X connect 8 0 7 0;
#X connect 9 0 1 0;
#X connect 10 0 5 0;
#X restore 161 152 pd synth;
#X text 124 19 3-voice polyphonic synth;
#X obj 65 115 route 1 2 3, f 18;
#X obj 65 52 poly 3 1;
#X connect 0 0 8 0;
#X connect 1 0 3 0;
#X connect 2 0 7 0;
#X connect 4 0 3 0;
#X connect 5 0 3 0;
#X connect 7 0 1 0;
#X connect 7 1 4 0;
#X connect 7 2 5 0;
#X connect 8 0 2 0;
#X connect 8 1 2 1;
#X connect 8 2 2 2;
#X restore 1003 412 pd polysynth;
#X text 1084 412 <= 3 voice polyphonic;
#X msg 899 282 delay 500;
#X obj 1003 311 cyclone/seq;
#X msg 977 267 start -1;
#X msg 878 374 tick;
#X obj 715 320 pipe 2000;
#X obj 572 474 line 0;
#X floatatom 395 401 5 0 0 0 - - -;
#X obj 315 437 pack 24 200;
#X floatatom 573 504 5 0 0 0 - - -;
#X obj 578 219 expr 60000./($f1*24.);
#X obj 571 527 b;
#X floatatom 759 263 5 0 0 0 - - -;
#X obj 443 247 expr 60000./$f1;
#X obj 553 350 *;
#X obj 461 292 nbx 5 14 -1e+37 1e+37 0 0 empty empty empty 0 -8 0 10
-262144 -1 -1 0 256;
#X floatatom 613 287 5 0 0 0 - - -;
#X floatatom 613 316 5 0 0 0 - - -;
#X obj 1014 86 bng 15 250 50 0 empty empty empty 17 7 0 10 -262144
-1 -1;
#X obj 1016 117 trigger bang bang;
#X obj 1115 147 bng 15 250 50 0 empty empty empty 17 7 0 10 -262144
-1 -1;
#X obj 987 160 bng 15 250 50 0 empty empty empty 17 7 0 10 -262144
-1 -1;
#X obj 1016 142 pipe 200;
#X msg 1115 171 0;
#X msg 987 180 1;
#X obj 234 299 trigger bang bang;
#X obj 495 321 / 10;
#X obj 485 26 inlet;
#X obj 714 26 inlet;
#X obj 741 148 * 50;
#X obj 1012 35 inlet;
#X obj 1002 463 outlet~;
#X obj 231 67 r step;
#X obj 363 97 r tempo;
#X obj 530 25 r speed\$1;
#X obj 769 26 r phase\$1;
#X obj 570 94 print speed\$1;
#X obj 792 80 print phase\$1;
#X obj 905 165 loadbang;
#X obj 771 497 print \$1 \$2;
#X obj 782 464 loadbang;
#X obj 908 207 symbol \$2;
#X msg 937 239 read \$1;
#X obj 1191 195 r allstop;
#X obj 1089 38 r allrestart;
#X connect 0 0 13 0;
#X connect 1 0 8 0;
#X connect 2 0 16 0;
#X connect 4 0 0 0;
#X connect 5 0 4 0;
#X connect 8 0 17 0;
#X connect 8 1 2 0;
#X connect 8 1 5 0;
#X connect 9 0 16 0;
#X connect 13 0 45 0;
#X connect 15 0 16 0;
#X connect 16 0 4 0;
#X connect 16 1 17 0;
#X connect 17 0 16 0;
#X connect 18 0 16 0;
#X connect 19 0 18 0;
#X connect 20 0 23 0;
#X connect 21 0 20 0;
#X connect 22 0 20 0;
#X connect 23 0 25 0;
#X connect 24 0 28 1;
#X connect 24 0 30 0;
#X connect 25 0 19 0;
#X connect 26 0 19 1;
#X connect 27 0 22 1;
#X connect 28 0 20 2;
#X connect 28 0 31 0;
#X connect 29 0 40 0;
#X connect 32 0 33 0;
#X connect 33 0 36 0;
#X connect 33 1 34 0;
#X connect 34 0 37 0;
#X connect 35 0 38 0;
#X connect 36 0 35 0;
#X connect 37 0 8 0;
#X connect 38 0 8 0;
#X connect 39 0 22 0;
#X connect 39 1 21 0;
#X connect 40 0 28 0;
#X connect 41 0 29 0;
#X connect 42 0 43 0;
#X connect 43 0 26 0;
#X connect 44 0 32 0;
#X connect 46 0 39 0;
#X connect 47 0 27 0;
#X connect 47 0 24 0;
#X connect 48 0 50 0;
#X connect 48 0 29 0;
#X connect 49 0 51 0;
#X connect 49 0 43 0;
#X connect 52 0 55 0;
#X connect 54 0 53 0;
#X connect 55 0 56 0;
#X connect 56 0 16 0;
#X connect 57 0 8 0;
#X connect 58 0 32 0;
