#N canvas 321 167 1517 930 10;
#X msg 312 104 tempo \$1;
#X msg 101 105 resolution \$1;
#X msg 204 125 reset \$1 \$2;
#X obj 204 104 pack f f;
#X floatatom 278 224 5 0 0 1 beat_time - -;
#X floatatom 241 242 5 0 0 1 phase - -;
#X msg 93 571 \; pd dsp 1;
#X floatatom 204 264 5 0 0 1 step - -;
#X floatatom 315 203 5 0 0 1 tempo - -;
#X obj 24 85 tgl 15 0 empty empty empty 17 7 0 10 -262144 -1 -1 0 1
;
#X obj 204 178 abl_link~ 1 0 4 134;
#X floatatom 312 85 5 0 0 2 tempo - -;
#X floatatom 249 85 5 0 0 2 quantum - -;
#X floatatom 204 85 5 0 0 2 beat - -;
#X floatatom 101 85 5 0 0 2 resolution - -;
#X msg 24 105 connect \$1;
#X floatatom 61 649 5 0 0 0 - - -;
#X obj 61 627 r #abl_link_num_peers;
#X obj 1169 43 ctlin;
#X floatatom 1086 79 5 0 0 0 - - -;
#X floatatom 1161 84 5 0 0 0 - - -;
#X floatatom 1238 104 5 0 0 0 - - -;
#X obj 217 339 s step;
#X obj 335 288 s tempo;
#X obj 712 728 *~ 1;
#X obj 989 665 nbx 5 14 -1e+37 1e+37 0 0 empty empty empty 0 -8 0 10
-262144 -1 -1 0.26 256;
#X obj 698 801 dac~;
#X obj 538 422 bng 15 250 50 0 empty empty empty 17 7 0 10 -262144
-1 -1;
#X obj 742 421 bng 15 250 50 0 empty empty empty 17 7 0 10 -262144
-1 -1;
#X obj 903 424 bng 15 250 50 0 empty empty empty 17 7 0 10 -262144
-1 -1;
#X obj 1096 428 bng 15 250 50 0 empty empty empty 17 7 0 10 -262144
-1 -1;
#X floatatom 1249 215 5 0 0 0 - - -;
#X floatatom 1154 222 5 0 0 0 - - -;
#X obj 1159 183 expr $i1%2 \; $i1/2;
#X msg 1166 281 symbol speed6;
#X msg 1267 278 symbol phase6;
#X obj 1119 246 select 0 1;
#X msg 1205 241 set symbol speed\$1;
#X msg 1348 244 set symbol phase\$1;
#X obj 596 450 warpLooper_sub 1 seq2.mid;
#X obj 756 453 warpLooper_sub 2 seq2.mid;
#X obj 949 454 warpLooper_sub 3 seq2.mid;
#X obj 391 448 warpLooper_sub 0 seq2.mid;
#X msg 308 690 0;
#X obj 309 715 s allstop;
#X obj 425 713 s allrestart;
#X obj 424 683 bng 15 250 50 0 empty empty empty 17 7 0 10 -262144
-1 -1;
#X obj 663 71 ctlin;
#X floatatom 619 98 5 0 0 0 - - -;
#X floatatom 664 97 5 0 0 0 - - -;
#X floatatom 709 97 5 0 0 0 - - -;
#X obj 709 136 select 1 2 3;
#X msg 633 265 symbol pitch12;
#X msg 766 169 symbol phase;
#X msg 853 173 symbol pitch;
#X obj 636 216 pack 0 s;
#X msg 668 170 symbol speed;
#X msg 635 242 set symbol \$2\$1;
#X obj 559 261 send;
#X obj 581 193 t f b;
#X obj 512 486 bng 15 250 50 0 empty empty empty 17 7 0 10 -262144
-1 -1;
#X obj 716 485 bng 15 250 50 0 empty empty empty 17 7 0 10 -262144
-1 -1;
#X obj 877 488 bng 15 250 50 0 empty empty empty 17 7 0 10 -262144
-1 -1;
#X obj 1070 492 bng 15 250 50 0 empty empty empty 17 7 0 10 -262144
-1 -1;
#X obj 365 512 warpLooper_sub 4 seq2.mid;
#X obj 570 514 warpLooper_sub 5 seq2.mid;
#X obj 730 517 warpLooper_sub 6 seq2.mid;
#X obj 923 518 warpLooper_sub 7 seq2.mid;
#X obj 588 510 bng 15 250 50 0 empty empty empty 17 7 0 10 -262144
-1 -1;
#X obj 792 509 bng 15 250 50 0 empty empty empty 17 7 0 10 -262144
-1 -1;
#X obj 953 512 bng 15 250 50 0 empty empty empty 17 7 0 10 -262144
-1 -1;
#X obj 1146 516 bng 15 250 50 0 empty empty empty 17 7 0 10 -262144
-1 -1;
#X obj 441 536 warpLooper_sub 8 seq2.mid;
#X obj 646 538 warpLooper_sub 9 seq2.mid;
#X obj 806 541 warpLooper_sub 10 seq2.mid;
#X obj 999 542 warpLooper_sub 11 seq2.mid;
#X msg 337 805 64;
#X obj 337 826 s resetpitches;
#X connect 0 0 10 0;
#X connect 1 0 10 0;
#X connect 2 0 10 0;
#X connect 3 0 2 0;
#X connect 7 0 22 0;
#X connect 8 0 23 0;
#X connect 9 0 15 0;
#X connect 10 0 7 0;
#X connect 10 1 5 0;
#X connect 10 2 4 0;
#X connect 10 3 8 0;
#X connect 11 0 0 0;
#X connect 12 0 3 1;
#X connect 13 0 3 0;
#X connect 14 0 1 0;
#X connect 15 0 10 0;
#X connect 17 0 16 0;
#X connect 18 0 19 0;
#X connect 18 1 20 0;
#X connect 18 2 21 0;
#X connect 20 0 33 0;
#X connect 24 0 26 0;
#X connect 24 0 26 1;
#X connect 25 0 24 1;
#X connect 27 0 42 2;
#X connect 28 0 39 2;
#X connect 29 0 40 2;
#X connect 30 0 41 2;
#X connect 31 0 37 0;
#X connect 31 0 38 0;
#X connect 32 0 36 0;
#X connect 33 0 32 0;
#X connect 33 1 31 0;
#X connect 36 0 34 0;
#X connect 36 1 35 0;
#X connect 37 0 34 0;
#X connect 38 0 35 0;
#X connect 39 0 24 0;
#X connect 40 0 24 0;
#X connect 41 0 24 0;
#X connect 42 0 24 0;
#X connect 43 0 44 0;
#X connect 46 0 45 0;
#X connect 47 0 48 0;
#X connect 47 1 49 0;
#X connect 47 2 50 0;
#X connect 48 0 59 0;
#X connect 49 0 55 0;
#X connect 50 0 51 0;
#X connect 51 0 56 0;
#X connect 51 1 53 0;
#X connect 51 2 54 0;
#X connect 52 0 58 1;
#X connect 53 0 55 1;
#X connect 54 0 55 1;
#X connect 55 0 57 0;
#X connect 56 0 55 1;
#X connect 57 0 52 0;
#X connect 59 0 58 0;
#X connect 59 1 52 0;
#X connect 60 0 64 2;
#X connect 61 0 65 2;
#X connect 62 0 66 2;
#X connect 63 0 67 2;
#X connect 64 0 24 0;
#X connect 65 0 24 0;
#X connect 66 0 24 0;
#X connect 67 0 24 0;
#X connect 68 0 72 2;
#X connect 69 0 73 2;
#X connect 70 0 74 2;
#X connect 71 0 75 2;
#X connect 72 0 24 0;
#X connect 73 0 24 0;
#X connect 74 0 24 0;
#X connect 75 0 24 0;
